<?xml version="1.0" encoding="utf-8"?>
<svg version="1.1" xmlns="http://www.w3.org/2000/svg" width="120px" height="120px" viewBox="0 0 120 120">
<path fill="#4caf50" d="M109.094,55.899c0.01-3.515-0.385-6.63-0.636-9.882c-0.638-1.172-0.877-2.735-1.276-4.143
c-0.686-1.121-1.137-2.476-1.596-3.826c-0.652-0.62-1.045-1.504-1.59-2.232c-0.387-0.994-1.379-1.384-1.598-2.551
c-1.937-1.675-3.672-3.551-5.735-5.1c-4.997-3.265-9.944-5.902-16.259-7.649c-6.416-1.774-14.74-1.753-22.948-1.593
c-0.071,0.248-0.268,0.37-0.638,0.319c-1.514-0.237-2.192,0.357-3.509,0.317c-5.651,1.572-11.103,3.344-15.937,5.737
c-1.5,1.478-3.304,2.646-4.781,4.144c-0.406,1.083-1.768,1.208-1.912,2.551c-0.838,0.756-1.922,1.268-2.232,2.549
c-1.661,1.314-2.872,3.081-3.825,5.102c-0.702,0.785-1.343,1.63-1.593,2.868c-0.613,0.981-1.761,1.428-1.911,2.87
c-1.079,3.811-1.347,8.432-1.596,13.068c-0.997,3.888-0.529,9.245-0.636,14.026c0.693-0.056,0.145,1.129,0.319,1.592
c2.693,10.377,8.372,17.769,14.982,24.229c0.998-0.15,0.843,0.857,1.591,0.956c-0.05,0.901,1.966-0.267,1.913,0.638
c0.961,0.739,1.983,1.416,2.868,2.231c2.25,1.259,4.441,2.575,7.016,3.505c6.232,2.798,14.652,3.409,23.905,3.188
c0.145-0.922,2.41,0.283,2.551-0.638c1.418,0.25,1.914-0.423,3.186-0.317c1.598-0.641,3.424-1.045,5.1-1.596
c1.492-0.742,2.978-1.488,4.468-2.229c1.606-0.729,2.768-1.908,4.463-2.55c3.633-3.381,7.496-6.528,9.881-11.157
c2.853-4.267,5-9.237,6.058-15.3c0.69-1.01,0.479-2.92,0.953-4.146c0.006-0.846-0.117-1.818,0.322-2.229
c0.193-0.762-0.402-2.313,0.316-2.549C108.555,62.374,109.314,59.627,109.094,55.899z M102.398,72.156
c-0.529,1.947-1.354,4.938-2.231,7.012c-0.093,0.223-0.558,0.77-0.636,0.958c-0.192,0.468-0.105,0.799-0.319,1.274
c-1.407,3.125-3.258,5.699-4.78,8.287c-2.295,2.596-4.811,4.965-7.332,7.334c-2.033,0.729-3.149,2.375-5.42,2.867
c-1.471,1.288-4.012,1.514-5.736,2.549c-2.682,0.295-5.149,0.803-7.969,0.955c-5.553,0.03-10.586-0.465-14.981-1.593
c-3.859-0.924-6.662-2.899-10.519-3.825c-1.397-1.363-3.225-2.301-4.784-3.504c-1.282-1.48-3.046-2.479-4.459-3.826
c-0.114-1.058-0.958-1.381-1.594-1.912c-1.188-2.64-3.198-4.452-3.828-7.65c-1.623-2.199-2.369-5.275-3.187-8.288
c-0.417-2.149,0.074-4.462,0-7.014c-0.068-2.333-0.561-4.886-0.317-7.331c1.808-9.346,5.489-16.82,11.154-22.312
c7.033-5.296,14.326-10.327,26.777-10.201h0.64c0.313-0.843,2.534-0.079,3.822,0c3.306,0.207,7.063,0.056,10.198,0.638
c0.095,0.017,0.351,0.282,0.643,0.319c0.734,0.088,0.781,0.096,1.591,0.318c0.763,0.208,2.38,0.573,3.509,0.955
c0.114,0.041,0,0.303,0.316,0.32c0.658,0.037,1.011,0.361,1.593,0.637c0.118,0.055,0.562-0.094,0.64,0
c0.248,0.3,1.826,0.807,2.553,1.275c6.609,3.061,11.727,7.61,14.979,14.026c0.124,1.15,0.426,2.126,0.959,2.867
C104.582,56.128,104.371,64.932,102.398,72.156z M76.262,54.625c0.748,0.1,0.715,0.986,1.276,1.274
c0.103,0.746,1.388,0.31,1.591,0.956c1.379-0.218,2.326-0.86,3.51-1.275c1.123-1.189,1.819-2.641,2.229-4.144
c0.71-2.604,0.421-6.939-0.637-9.244c-1.043-0.659-1.875-1.521-3.824-1.274c-1.168,0.746-2.108,1.715-3.19,2.549
c-0.237,1.672-1.063,2.759-1.271,4.463v5.739C76.314,53.721,76.29,54.173,76.262,54.625z M51.399,56.855
c2.297,0.172,3.836-0.408,5.098-1.275c1.632-3.493,2.105-9.639,0-13.069c-1.154-0.546-2.604-0.795-4.463-0.636
c-1.418,0.703-2.385,1.862-3.186,3.188c-0.499,3.523-0.913,9.301,1.274,11.155C50.716,56.262,51.189,56.428,51.399,56.855z
 M95.066,61.957c-6.279,8.17-10.918,17.98-20.4,22.949c-0.725,0.23-1.628,0.285-2.23,0.639h-6.058
c-9.888-1.801-15.941-7.431-21.354-13.707c-1.584-1.605-1.217-5.158-4.147-5.418c-2.992,1.213-1.591,5.841,0,7.648
c1.097,2.834,3.205,4.662,4.784,7.014c6.464,5.648,13.51,10.715,25.817,10.52c7.344-0.735,11.193-4.961,14.984-9.244
c1.79-2.248,3.629-4.444,4.781-7.33c1-1.018,1.229-2.81,2.229-3.826c-0.031-0.987,0.391-1.521,0.639-2.231
c0.479-0.581,0.339-1.786,0.955-2.23c-0.092-1.688,0.556-2.634,0.641-4.145C95.641,62.236,95.354,62.097,95.066,61.957z"/>
</svg>
