<?xml version="1.0" encoding="utf-8"?>
<svg version="1.1" xmlns="http://www.w3.org/2000/svg" width="120px" height="120px" viewBox="0 0 120 120">
<path fill="#f44336" d="M108.656,46.31c-0.783-2.938-1.859-5.582-2.868-8.291c-0.655-0.62-1.05-1.504-1.599-2.233
c-0.387-0.994-1.377-1.387-1.594-2.551c-2.66-2.333-5.068-4.92-7.976-6.697c-0.152-0.094-0.468,0.078-0.636,0
c-0.235-0.104-0.231-0.615-0.637-0.637c-0.879-0.045-1.65-0.937-2.234-1.275c-0.403-0.235-0.854-0.428-1.273-0.637
c-5.554-2.781-13.023-4.932-20.408-5.104c-3.884-0.089-8.263,0.067-11.8,0c-0.067,0.251-0.269,0.373-0.636,0.319h-1.915
c-6.089,1.46-11.787,3.309-16.901,5.741c-0.072,0.249-0.264,0.371-0.64,0.318c-0.87,1.253-2.476,1.772-3.505,2.871
c-0.873,1.357-2.315,2.146-3.188,3.507c-1.059,1.176-2.027,2.438-3.191,3.51c-0.957,1.271-1.724,2.737-2.868,3.826
c-1.052,2.561-2.589,4.639-3.51,7.333c-0.811,2.804-1.644,5.585-2.231,8.61c0.186,1.035-0.216,1.482-0.32,2.233v9.885
c1.398,9.765,4.162,18.161,8.291,25.192c1.895,2.084,3.979,3.924,6.059,5.422c0.727,0.521,1.56,1.412,2.551,1.594
c1.283,1.375,3.145,2.17,4.785,3.188c1.503,1.154,3.159,2.157,4.781,3.188c1.332-0.159,1.41,0.933,2.872,0.638
c1.308-0.138,2.043,0.297,2.869,0.639c2.013,0.328,3.765,0.914,5.741,1.275c4.305,0.479,8.764,0.805,13.713,0.639
c2.008-0.328,4.329-0.35,6.057-0.957c4.008-0.672,7.396-1.963,10.205-3.826c1.955-0.491,2.947-1.943,4.783-2.553
c1.547-1.428,2.953-3,4.784-4.146c1.246-1.836,2.74-3.423,4.146-5.101c0.941-2.142,2.547-3.619,3.189-6.061
c1.426-1.656,1.708-4.456,2.868-6.379C108.93,70.439,110.072,57.635,108.656,46.31z M102.598,72.139
c-0.533,1.949-1.356,4.939-2.234,7.017c-0.094,0.223-0.557,0.77-0.639,0.959c-0.19,0.467-0.104,0.799-0.317,1.274
c-1.41,3.125-3.257,5.701-4.785,8.291c-2.5,2.702-4.992,5.42-7.97,7.651c-1.697,0.962-3.228,2.089-5.104,2.87
c-1.61,0.936-3.778,1.318-5.42,2.23c-7.106,1.45-16.424,1.12-22.958-0.638c-3.857-0.923-6.664-2.899-10.525-3.826
c-1.903-1.71-4.292-2.935-6.057-4.78c-2.153-1.463-4.17-3.062-5.739-5.104c0.013-0.547-0.238-0.824-0.64-0.957
c-1.181-2.112-1.749-4.841-2.869-7.015c-1.15-2.038-1.956-4.424-2.551-7.016v-0.639c-0.434-2.074,0.09-4.55,0-7.016
c-0.087-2.361-0.568-4.697-0.321-7.017c1.833-9.543,5.659-17.091,11.482-22.643c5.128-4.01,10.935-7.346,18.178-9.248
c2.633-0.341,5.115-0.836,8.291-0.637h0.635c0.508-0.787,3.15-0.071,4.786,0c4.465,0.198,9.086,0.36,12.756,1.596
c4.896,1.48,9.15,3.604,13.074,6.059c0.758,0.943,1.883,1.518,2.869,2.23c0.717,0.986,1.564,1.836,2.551,2.551
c1.307,1.99,2.633,3.959,3.826,6.061c0.125,1.151,0.425,2.127,0.957,2.869C104.779,56.104,104.566,64.91,102.598,72.139z
 M76.445,54.602c0.748,0.102,0.716,0.986,1.277,1.277c0.104,0.744,1.393,0.308,1.594,0.953c1.377-0.217,2.328-0.861,3.51-1.274
c1.129-1.19,1.822-2.642,2.232-4.147c0.709-2.602,0.418-6.94-0.64-9.246c-1.041-0.66-1.881-1.522-3.826-1.277
c-1.168,0.748-2.11,1.721-3.188,2.553c-0.243,1.671-1.069,2.757-1.277,4.464v5.741C76.501,53.697,76.477,54.147,76.445,54.602z
 M51.576,56.832c2.293,0.172,3.842-0.41,5.101-1.274c1.632-3.495,2.104-9.644,0-13.075c-1.155-0.545-2.605-0.794-4.464-0.637
c-1.422,0.705-2.39,1.864-3.188,3.189c-0.498,3.525-0.917,9.305,1.273,11.16C50.893,56.238,51.364,56.404,51.576,56.832z
 M82.508,75.965c-1.956-1.977-4.023-3.844-6.381-5.42c-0.9,0.264-0.822-0.45-1.594-0.318c-0.193-0.551-1.512,0.023-1.594-0.639
c-3.92-0.193-7.205,0.236-10.522,0.639c-1.727,1.037-4.267,1.262-5.741,2.551c-2.172,0.697-3.747,1.992-5.422,3.188
c-1.688,1.183-2.893,2.853-4.462,4.148c-0.317,1.063-1.015,1.75-1.277,2.868c0.378,1.109,0.583,2.393,1.912,2.55
c1.802,0.317,1.831-1.146,2.552-1.912c0.549-1.045,1.684-1.507,2.233-2.554c1.154-0.334,1.765-1.209,2.551-1.911
c1.083-0.404,1.844-1.134,2.87-1.595c2.017-1.063,4.413-1.752,7.018-2.231h7.652c0.068,0.25,0.268,0.371,0.639,0.319
c2.25,0.938,3.578,2.797,5.101,4.466c1.907,2.131,2.085,5.993,6.06,6.058c0.392-0.46,1.219-0.482,1.596-0.956
c0.156-0.378,0.342-0.725,0.637-0.959c0.312-2.327-1.01-3.028-1.594-4.464C84.176,78.334,83.143,77.348,82.508,75.965z"/>
</svg>
