<?xml version="1.0" encoding="utf-8"?>
<svg version="1.1" xmlns="http://www.w3.org/2000/svg" width="120px" height="120px" viewBox="0 0 120 120">
<path fill="#2196f3" d="M91.914,38.188c0-1.203,0.051-2.522-0.02-3.834c-0.038-0.755-0.215-1.514-0.422-2.245
c-1.141-4.043-3.038-7.728-5.235-11.293c-1.524-2.477-3.635-4.371-5.772-6.244c-0.723-0.634-1.654-1.097-2.562-1.444
c-2.454-0.939-4.946-1.782-7.43-2.643c-0.411-0.142-0.849-0.235-1.281-0.276c-3.485-0.326-6.926-0.563-10.469-0.073
c-5.767,0.798-11.068,2.605-15.939,5.734c-4.383,2.816-8.182,6.243-10.712,10.864c-1.313,2.395-2.464,4.885-3.585,7.377
c-0.35,0.77-0.48,1.688-0.51,2.546c-0.073,2.083-0.039,4.171-0.015,6.255c0.007,0.653,0.052,1.322,0.192,1.957
c0.527,2.349,1.145,4.678,1.637,7.034c0.207,0.994,0.652,1.816,1.141,2.685c1.189,2.133,2.622,4.04,4.537,5.563
c1.326,1.056,2.21,2.415,2.854,3.957c0.505,1.215,1.025,2.424,1.54,3.634c2.311,5.412,3.668,11.01,3.342,16.943
c-0.032,0.547-0.096,1.104-0.034,1.643c0.073,0.641,0.104,1.368,0.433,1.881c0.818,1.28,0.951,2.646,0.918,4.098
c-0.017,0.76,0.117,1.524,0.205,2.286c0.248,2.175,1.051,4.017,3.079,5.131c0.746,0.408,0.812,1.062,0.955,1.878
c0.358,2.006,1.503,3.604,3.317,4.68c2.865,1.697,5.956,2.8,9.217,3.348c1.604,0.27,3.277,0.373,4.896-0.117
c3.944-1.199,6.621-3.699,7.809-7.688c0.164-0.554,0.361-1.007,0.866-1.317c0.37-0.23,0.718-0.501,1.063-0.771
c1.84-1.443,2.848-3.303,2.799-5.676c-0.036-1.756-0.104-3.512-0.106-5.266c-0.002-0.98-0.085-2.02,0.196-2.932
c0.637-2.066,0.635-4.076,0.104-6.147c-0.386-1.509-0.301-3.01,0.101-4.545c1.781-6.816,4.486-13.267,7.539-19.59
c1.096-2.268,2.172-4.548,3.3-6.801C91.516,45.474,92.462,42.034,91.914,38.188z M48.756,85.465
c-0.192-0.219-0.356-0.579-0.322-0.85c0.068-0.511,0.522-0.617,0.98-0.603c0.329,0.011,0.663,0.009,0.985,0.068
c4.562,0.834,9.173,0.563,13.772,0.621c1.206,0.017,2.412,0.01,3.619-0.002c1.637-0.015,3.289,0.106,4.877-0.49
c0.129-0.05,0.367,0.141,0.527,0.257c0.053,0.037,0.049,0.209,0.017,0.297c-0.39,1.069-1.046,1.959-2.081,2.434
c-1.188,0.541-2.41,1.053-3.666,1.395c-2.768,0.756-5.6,1.01-9.175,0.646c-0.277,0-1.266-0.044-2.249,0.01
c-2.49,0.134-4.434-0.919-6.084-2.675C49.582,86.178,49.11,85.871,48.756,85.465z M73.794,93.697
c-0.236,1.657-1.604,2.678-3.86,2.896c-0.977,0.096-1.968,0.006-2.953,0.006c-1.854-0.002-3.711-0.001-5.57-0.001v0.032
c-2.622,0-5.244,0.045-7.864-0.023c-0.965-0.025-1.929-0.293-2.884-0.492c-1.298-0.272-1.695-1.234-1.782-2.419
c-0.047-0.625,0.416-1.028,0.992-0.746c2.421,1.188,5.071,1.24,7.659,1.515c5.059,0.536,10.012-0.104,14.858-1.628
c0.104-0.032,0.205-0.118,0.303-0.115c0.303,0.015,0.695-0.044,0.881,0.118C73.758,93.006,73.834,93.417,73.794,93.697z
 M83.33,46.25c-0.854,1.778-1.709,3.561-2.661,5.287c-3.411,6.161-5.956,12.68-8.069,19.377c-0.49,1.552-0.88,3.155-1.105,4.767
c-0.225,1.582-1.326,2.343-2.654,2.361c-0.879,0.012-1.757,0.061-2.635,0.064c-2.085,0.01-4.17,0.003-6.255,0.003v-0.124
c-2.746,0-5.487,0.03-8.229-0.014c-1.207-0.019-1.462-0.361-1.518-1.639c-0.02-0.438-0.026-0.879-0.004-1.316
c0.042-0.912-0.149-1.775-0.738-2.467c-0.842-0.988-0.955-2.152-1.098-3.368c-0.124-1.074-0.307-2.214-0.791-3.158
c-1.398-2.727-2.938-5.384-4.481-8.034c-0.437-0.75-1.085-1.33-1.987-1.628c-0.595-0.197-1.264-0.537-1.622-1.019
c-1.3-1.743-2.594-3.453-3.33-5.597c-0.874-2.543-1.298-5.072-1.162-7.733c0.089-1.753,0.111-3.509,0.184-5.264
c0.072-1.775,0.596-3.415,1.334-5.037c2.277-4.999,6.155-8.36,10.731-11.187c3.833-2.366,8.022-3.572,12.354-4.2
c5.804-0.845,11.356,0.311,16.466,3.232c1.718,0.984,3.055,2.473,4.133,4.149c1.844,2.865,3.428,5.849,4.385,9.151
c0.432,1.491,0.584,2.975,0.688,4.515C85.476,40.546,84.677,43.448,83.33,46.25z M69.311,53.079
c-0.566,0.228-0.885,1.206-1.586,0.794c-0.52-0.306-0.831-0.992-1.195-1.536c-0.241-0.359-0.38-0.791-0.627-1.146
c-0.522-0.747-1.625-1.078-2.303-0.439c-1.04,0.981-1.69,0.561-2.781,0.021c-1.326-0.654-2.942-0.76-4.449-1.002
c-2.678-0.43-5.504,1.328-5.27,4.318c0.043,0.943,0.006,1.501,0.1,2.036c0.889,5.062,1.797,10.119,2.71,15.176
c0.077,0.429,0.275,0.836,0.354,1.264c0.218,1.135,0.885,1.99,1.673,2.77c0.482,0.478,1.062,0.815,1.771,0.637
c1.646-0.417,3.181,0.018,4.713,0.557c1.005,0.352,1.768,0.197,2.309-0.619c0.474-0.717,0.836-1.527,1.13-2.338
c0.938-2.568,1.855-5.145,2.709-7.739c1.164-3.527,2.275-7.071,3.375-10.62c0.205-0.66,0.004-1.31-0.488-1.818
C70.952,52.876,70.062,52.778,69.311,53.079z M58.723,62.311c-0.032,0.207-0.139,0.425-0.275,0.584
c-0.13,0.155-0.343,0.242-0.522,0.359c-0.049-0.092-0.124-0.182-0.141-0.279c-0.367-2.154-0.723-4.309-1.085-6.463
c0.049-0.008,0.094-0.017,0.141-0.025c0-0.329-0.006-0.659,0-0.987c0.013-0.688,0.296-1.021,0.932-1.067
c0.437-0.031,0.878-0.053,1.313-0.013c0.433,0.039,0.868,0.142,0.77,0.76C59.477,57.556,59.108,59.936,58.723,62.311z
 M64.182,64.996c-0.092,0.153-0.303,0.237-0.46,0.354c-0.064-0.202-0.158-0.4-0.192-0.606c-0.033-0.213-0.008-0.434-0.008-1.35
c0.219-1.349,0.502-3.387,0.893-5.403c0.241-1.227,0.689-1.379,2.137-0.969c0.104,0.03,0.264,0.012,0.307,0.077
c0.166,0.243,0.458,0.554,0.404,0.763C66.612,60.399,65.542,62.763,64.182,64.996z"/>
</svg>
